
<svg xmlns="http://www.w3.org/2000/svg" version="1.1" xmlns:xlink="http://www.w3.org/1999/xlink" xmlns:svgjs="http://svgjs.dev/svgjs" width="2000" height="2250" viewBox="0 0 2000 2250"><g transform="matrix(1,0,0,1,0,0)"><svg viewBox="0 0 320 360" data-background-color="#c8c8c8" preserveAspectRatio="xMidYMid meet" height="2250" width="2000" xmlns="http://www.w3.org/2000/svg" xmlns:xlink="http://www.w3.org/1999/xlink"><g id="tight-bounds" transform="matrix(1,0,0,1,0,0)"><svg viewBox="0 0 320 360" height="360" width="320"><g><svg></svg></g><g><svg viewBox="0 0 320 360" height="360" width="320"><g><path d="M159.823 340.15v0c-7.794 0-14.524-4.96-16.65-12.399-1.063-3.897-5.314-6.022-8.856-4.96-1.417 0.354-2.834 1.417-3.897 2.834-5.668 7.794-16.296 9.919-24.444 4.251-4.96-3.188-7.794-8.856-7.439-14.878 0-3.897-3.188-7.439-7.085-7.44-1.771 0-3.188 0.354-4.605 1.417-7.794 5.668-18.775 4.251-24.444-3.542-3.543-4.605-4.605-10.628-2.479-16.296 1.417-3.897-0.709-7.794-4.606-9.21-1.417-0.354-3.188-0.354-4.605 0-9.211 3.188-19.13-1.771-22.318-10.982-1.771-5.314-1.063-11.69 2.48-16.296 2.48-3.188 1.771-7.794-1.417-9.919-1.417-1.063-2.834-1.417-4.605-1.417-9.565 0.354-17.713-7.439-17.713-17.004 0-6.022 2.834-11.336 7.439-14.879 3.188-2.126 3.897-6.731 1.771-9.919-1.063-1.417-2.126-2.126-3.896-2.834-9.211-2.834-14.524-12.753-11.691-21.963 1.771-5.668 6.022-9.919 11.691-11.691 3.897-1.063 6.022-5.314 4.959-8.856-0.354-1.417-1.417-2.834-2.834-3.897-7.794-5.668-9.919-16.296-4.251-24.443 3.188-4.96 8.856-7.794 14.879-7.44 3.897 0 7.439-3.188 7.439-7.085 0-1.771-0.354-3.188-1.417-4.605-5.668-7.794-4.251-18.775 3.543-24.443 4.605-3.543 10.628-4.605 16.295-2.48 3.897 1.417 7.794-0.709 9.211-4.605 0.354-1.417 0.354-3.188 0-4.606-3.188-9.211 1.771-19.13 10.982-22.318 5.314-1.771 11.69-1.063 16.295 2.48 3.188 2.48 7.794 1.771 9.919-1.417 1.063-1.417 1.417-2.834 1.417-4.605-0.354-9.565 7.439-17.713 17.005-17.713 6.022 0 11.336 2.834 14.878 7.439 2.126 3.188 6.731 3.897 9.919 1.772 1.417-1.063 2.126-2.126 2.834-3.897 2.834-9.211 12.753-14.524 21.964-11.69 5.668 1.771 9.919 6.022 11.69 11.69v0c0.709 2.48 2.834 4.605 5.668 4.96 2.834 0.354 5.314-0.709 7.085-2.835 5.668-7.794 16.296-9.919 24.444-4.251 4.96 3.188 7.794 8.856 7.439 14.879 0 3.897 3.188 7.439 7.085 7.439 1.771 0 3.188-0.354 4.605-1.417 7.794-5.668 18.775-4.251 24.444 3.543 3.543 4.605 4.605 10.628 2.48 16.296-1.417 3.897 0.709 7.794 4.605 9.21 1.417 0.354 3.188 0.354 4.605 0 9.211-3.188 19.13 1.771 22.318 10.982 1.771 5.314 1.063 11.69-2.48 16.296-2.48 3.188-1.771 7.794 1.417 9.919 1.417 1.063 2.834 1.417 4.606 1.417 9.565-0.354 17.713 7.439 17.712 17.004 0 6.022-2.834 11.336-7.439 14.878-2.48 1.417-3.543 4.251-3.188 7.085 0.354 2.834 2.48 4.96 4.959 5.669 9.211 2.834 14.524 12.753 11.691 21.963-1.771 5.668-6.022 9.919-11.691 11.691-3.897 1.063-6.022 5.314-4.959 8.856 0.354 1.417 1.417 2.834 2.834 3.897 7.794 5.668 9.919 16.296 4.251 24.443-3.188 4.96-8.856 7.794-14.879 7.439-2.834 0-5.314 1.417-6.731 3.897-1.417 2.48-1.063 5.314 0.709 7.794 5.668 7.794 4.251 18.775-3.543 24.443-4.605 3.543-10.628 4.605-16.295 2.48-3.897-1.417-7.794 0.709-9.211 4.605-0.354 1.417-0.354 3.188 0 4.606 3.188 9.211-1.771 19.13-10.982 22.317-5.314 1.771-11.69 1.063-16.295-2.479-3.188-2.48-7.794-1.771-9.919 1.417-1.063 1.417-1.417 2.834-1.417 4.605 0.354 9.565-7.439 17.713-17.005 17.713-6.022 0-11.336-2.834-14.878-7.44-1.417-2.126-4.251-3.543-7.085-2.834-2.834 0.354-4.96 2.48-5.668 4.96-2.126 7.439-8.856 12.399-16.65 12.399zM136.088 312.518c1.063 0 1.771 0 2.834 0.354 6.731 1.063 12.045 5.668 13.816 12.045 1.063 3.897 5.314 6.022 8.856 4.605 2.126-0.709 3.897-2.48 4.605-4.605 2.834-9.211 12.753-14.524 21.964-11.691 3.543 1.063 7.085 3.543 9.211 6.731 2.48 3.188 6.731 3.897 10.273 1.417 1.771-1.417 2.834-3.543 2.834-5.668-0.354-9.565 7.439-17.713 17.004-17.712 3.897 0 7.794 1.063 10.982 3.542 3.188 2.48 7.794 1.771 9.919-1.417 1.417-1.771 1.771-4.605 1.063-6.731-3.188-9.211 1.417-19.13 10.627-22.318 3.897-1.417 7.794-1.417 11.691 0 3.897 1.417 7.794-0.709 9.21-4.605 0.709-2.126 0.354-4.96-1.062-6.731-5.668-7.794-4.251-18.775 3.542-24.443 3.188-2.48 7.085-3.543 10.982-3.543 3.897 0 7.085-3.188 7.439-7.085 0-2.48-1.063-4.605-3.188-6.022-7.794-5.668-9.919-16.296-4.251-24.443 2.126-3.188 5.314-5.668 9.211-6.731 3.897-1.063 6.022-5.314 4.605-8.857-0.709-2.126-2.48-3.897-4.605-4.605-9.211-2.834-14.524-12.753-11.691-21.964 1.063-3.543 3.543-7.085 6.731-9.21 3.188-2.48 3.897-7.085 1.417-10.273-1.417-1.771-3.543-2.834-5.668-2.834-9.565 0.354-17.713-7.439-17.713-17.005 0-3.897 1.063-7.794 3.543-10.981 2.48-3.188 1.771-7.794-1.417-9.92-1.771-1.417-4.605-1.771-6.731-1.062-9.211 3.188-19.13-1.417-22.318-10.628-1.417-3.897-1.417-7.794 0-11.69 1.417-3.897-0.709-7.794-4.605-9.211-2.126-0.709-4.96-0.354-6.731 1.063-7.794 5.668-18.775 4.251-24.443-3.543-2.48-3.188-3.543-7.085-3.543-10.981 0-3.897-3.188-7.085-7.439-7.085-2.126 0-4.605 1.063-5.668 2.834-5.668 7.794-16.296 9.919-24.444 4.251-3.188-2.126-5.668-5.314-6.731-9.211v0c-1.063-3.897-5.314-6.022-8.856-4.605-2.126 0.709-3.897 2.48-4.605 4.605-2.834 9.211-12.753 14.524-21.964 11.69-3.543-1.063-7.085-3.543-9.21-6.73-2.48-3.188-6.731-3.897-10.274-1.417-1.771 1.417-2.834 3.543-2.834 5.668 0.354 9.565-7.439 17.713-17.004 17.712-3.897 0-7.794-1.063-10.982-3.542-3.188-2.48-7.794-1.771-9.919 1.417-1.417 1.771-1.771 4.605-1.063 6.731 3.188 9.211-1.417 19.13-10.627 22.317-3.897 1.417-7.794 1.417-11.691 0-3.897-1.417-7.794 0.709-9.21 4.606-0.709 2.126-0.354 4.96 1.063 6.731 5.668 7.794 4.251 18.775-3.543 24.443-3.188 2.48-7.085 3.543-10.982 3.543-3.897 0-7.085 3.188-7.085 7.439 0 2.126 1.063 4.605 2.834 5.668 7.794 5.668 9.919 16.296 4.251 24.443-2.126 3.188-5.314 5.668-9.21 6.731-3.897 1.063-6.022 5.314-4.606 8.856 0.709 2.126 2.48 3.897 4.606 4.606 9.211 2.834 14.524 12.753 11.69 21.963-1.063 3.543-3.543 7.085-6.731 9.211-3.188 2.48-3.897 6.731-1.417 10.273 1.417 1.771 3.543 2.834 5.668 2.834 9.565-0.354 17.713 7.439 17.713 17.004 0 3.897-1.063 7.794-3.543 10.982-2.48 3.188-1.771 7.794 1.417 9.919 1.771 1.417 4.605 1.771 6.731 1.063 9.211-3.188 19.13 1.417 22.318 10.628 1.417 3.897 1.417 7.794 0 11.69-1.417 3.897 0.709 7.794 4.605 9.211 2.126 0.709 4.96 0.354 6.731-1.063 7.794-5.668 18.775-4.251 24.444 3.542 2.48 3.188 3.543 7.085 3.542 10.982 0 3.897 3.188 7.085 7.085 7.44 2.48 0 4.605-1.063 6.023-3.189 3.543-4.605 8.856-7.439 14.524-7.439z" fill="#6b7280" fill-rule="nonzero" stroke="none" stroke-width="1" stroke-linecap="butt" stroke-linejoin="miter" stroke-miterlimit="10" stroke-dasharray="" stroke-dashoffset="0" font-family="none" font-weight="none" font-size="none" text-anchor="none" style="mix-blend-mode: normal" data-fill-palette-color="tertiary"></path></g><g transform="matrix(1,0,0,1,75.69973999999999,147.96595416624683)"><svg viewBox="0 0 168.60052000000002 64.06809166750631" height="64.06809166750631" width="168.60052000000002"><g><svg viewBox="0 0 168.60052000000002 64.06809166750631" height="64.06809166750631" width="168.60052000000002"><g><svg viewBox="0 0 168.60052000000002 64.06809166750631" height="64.06809166750631" width="168.60052000000002"><g><path d="M0 64.068v-64.068h168.601v64.068z" fill="#6b7280" stroke="transparent" stroke-width="0" rx="0%" data-fill-palette-color="tertiary"></path><path d="M3.283 60.785v-57.502h162.034v57.502z" fill="#c8c8c8" stroke="transparent" stroke-width="0" rx="0%" data-fill-palette-color="quaternary"></path><path d="M9.85 54.218v-44.368h148.901v44.368z" fill="#6b7280" stroke="transparent" stroke-width="0" data-fill-palette-color="tertiary"></path></g><g transform="matrix(1,0,0,1,19.69974,19.69974)" id="textblocktransform"><svg viewBox="0 0 129.20104000000003 24.668611667506305" height="24.668611667506305" width="129.20104000000003" id="textblock"><g><svg viewBox="0 0 129.20104000000003 24.668611667506305" height="24.668611667506305" width="129.20104000000003"><g transform="matrix(1,0,0,1,0,0)"><svg width="129.20104000000003" viewBox="2.4 -43.65 297.73 56.84999999999999" height="24.668611667506305" data-palette-color="#c8c8c8"><path d="M12.95-4.95Q12.95-2.95 13.08-1.28 13.2 0.4 13.4 1L13.4 1 4.05 13.2 2.4 11.9Q5.4 8.35 6.43 5.85 7.45 3.35 7.45-0.35L7.45-0.35 7.45-19.85 3-22.95 3-24.25 11.3-27.45 12.95-27.45 12.95-4.95ZM10-42.5Q11.4-42.5 12.28-41.45 13.15-40.4 13.15-38.85L13.15-38.85Q13.15-37.75 12.53-36.77 11.9-35.8 10.93-35.23 9.95-34.65 9.05-34.65L9.05-34.65Q7.7-34.65 6.8-35.73 5.9-36.8 5.9-38.35L5.9-38.35Q5.9-39.45 6.53-40.4 7.15-41.35 8.13-41.93 9.1-42.5 10-42.5L10-42.5ZM37.35-27Q40.6-27 43.15-25.28 45.7-23.55 47.15-20.6 48.6-17.65 48.6-14.1L48.6-14.1Q48.6-10.25 46.3-6.88 44-3.5 40.52-1.5 37.05 0.5 33.8 0.5L33.8 0.5Q30.6 0.5 28.02-1.2 25.45-2.9 24-5.85 22.55-8.8 22.55-12.35L22.55-12.35Q22.55-16.2 24.85-19.6 27.15-23 30.62-25 34.1-27 37.35-27L37.35-27ZM34.45-23.1Q28.5-23.1 28.5-14.75L28.5-14.75Q28.5-9.9 30.6-6.65 32.7-3.4 36.7-3.4L36.7-3.4Q42.6-3.4 42.6-11.75L42.6-11.75Q42.6-16.6 40.5-19.85 38.4-23.1 34.45-23.1L34.45-23.1ZM83.85-1.75L83 0 73.85 0 73.85-5.4 67.35 0.1Q66.3 0.5 64.65 0.5L64.65 0.5Q61.3 0.5 59.37-1.58 57.45-3.65 57.45-7.2L57.45-7.2 57.45-19.4 53-22 53-23.3 61.3-27.5 62.95-27.5 62.95-9.45Q62.95-6.6 63.82-5.5 64.7-4.4 66.95-4.4L66.95-4.4Q68.55-4.4 70.12-5.03 71.7-5.65 73.85-7.5L73.85-7.5 73.85-19.4 69.4-22 69.4-23.3 77.7-27.5 79.35-27.5 79.35-3.55 83.85-1.75ZM106.44-26.95Q107.84-26.95 108.99-26.1 110.14-25.25 110.84-23.75L110.84-23.75 107.79-19.95 106.14-19.95Q105.94-21.05 105.42-21.55 104.89-22.05 103.99-22.05L103.99-22.05Q102.79-22.05 101.54-21.45 100.29-20.85 98.64-19.05L98.64-19.05 98.64-3.85 105.49-1.7 104.64 0.05 88.69 0.05 88.69-1.25 93.14-4.7 93.14-19.4 88.69-21.95 88.69-23.25 96.84-27.45 98.34-21.15 103.64-26.6Q104.74-27 106.49-27L106.49-27 106.44-26.95ZM145.59-1.7L144.69 0.05 135.59 0.05 135.59-17Q135.59-19.85 134.69-20.95 133.79-22.05 131.54-22.05L131.54-22.05Q129.79-22.05 128.12-21.43 126.44-20.8 124.09-18.9L124.09-18.9 124.09-3.5 128.59-1.7 127.69 0.05 114.14 0.05 114.14-1.25 118.59-4.7 118.59-19.4 114.14-21.95 114.14-23.25 122.29-27.45 123.89-20.8 131.19-26.6Q132.24-27 133.84-27L133.84-27Q137.19-27 139.14-24.93 141.09-22.85 141.09-19.3L141.09-19.3 141.09-3.55 145.59-1.7ZM176.19-1.75L175.29 0 166.19 0 166.19-4.35 160.54 0.1Q159.54 0.5 158.04 0.5L158.04 0.5Q153.84 0.5 151.96-1.6 150.09-3.7 150.09-6.65L150.09-6.65Q150.09-8.45 151.39-10.18 152.69-11.9 155.14-13.45L155.14-13.45 166.19-13.45 166.19-17.1Q166.19-20.45 164.41-21.8 162.64-23.15 159.54-23.15L159.54-23.15Q156.49-23.15 152.24-19.2L152.24-19.2 150.74-20.9 157.99-26.65Q159.94-27 162.59-27L162.59-27Q166.89-27 169.29-24.83 171.69-22.65 171.69-18.55L171.69-18.55 171.69-3.5 176.19-1.75ZM159.44-3.25Q162.59-3.25 166.19-6.2L166.19-6.2 166.19-11.65 157.19-11.65Q156.44-10.8 156.16-9.95 155.89-9.1 155.89-8.05L155.89-8.05Q155.89-6.1 156.86-4.67 157.84-3.25 159.44-3.25L159.44-3.25ZM193.89-1.7L192.99 0.05 179.44 0.05 179.44-1.25 183.89-4.7 183.89-36.15 179.44-39.3 179.44-40.6 187.74-43.65 189.39-43.65 189.39-3.55 193.89-1.7ZM212.13-1.7L211.23 0.05 197.68 0.05 197.68-1.25 202.13-4.7 202.13-36.15 197.68-39.3 197.68-40.6 205.98-43.65 207.63-43.65 207.63-3.55 212.13-1.7ZM242.38-7L233.28 0.15Q231.43 0.5 228.93 0.5L228.93 0.5Q225.73 0.5 223.16-1.2 220.58-2.9 219.13-5.85 217.68-8.8 217.68-12.35L217.68-12.35Q217.68-16.2 219.98-19.6 222.28-23 225.76-25 229.23-27 232.48-27L232.48-27Q237.08-27 239.66-23.3 242.23-19.6 242.28-13.6L242.28-13.6 223.73-13.6Q223.98-9.15 226.06-6.28 228.13-3.4 231.83-3.4L231.83-3.4Q235.08-3.4 240.88-8.75L240.88-8.75 242.38-7ZM229.58-23.1Q223.98-23.1 223.73-15.4L223.73-15.4 235.83-15.4Q235.33-18.25 234.86-19.73 234.38-21.2 233.16-22.15 231.93-23.1 229.53-23.1L229.53-23.1 229.58-23.1ZM266.68-26.95Q268.08-26.95 269.23-26.1 270.38-25.25 271.08-23.75L271.08-23.75 268.03-19.95 266.38-19.95Q266.18-21.05 265.65-21.55 265.13-22.05 264.23-22.05L264.23-22.05Q263.03-22.05 261.78-21.45 260.53-20.85 258.88-19.05L258.88-19.05 258.88-3.85 265.73-1.7 264.88 0.05 248.93 0.05 248.93-1.25 253.38-4.7 253.38-19.4 248.93-21.95 248.93-23.25 257.08-27.45 258.58-21.15 263.88-26.6Q264.98-27 266.73-27L266.73-27 266.68-26.95ZM300.13-26.55L300.13-25.25 287.53-0.05 277.38 13.15 275.73 11.85Q278.63 8.8 280.13 6.5 281.63 4.2 282.23 1.85 282.83-0.5 282.78-3.75L282.78-3.75 276.38-19.3 271.83-21.95 271.83-23.25 279.88-27.45 281.78-19.9 287.98-4.65 295.28-19.9 288.73-24.75 289.58-26.5 300.13-26.55Z" opacity="1" transform="matrix(1,0,0,1,0,0)" fill="#c8c8c8" class="wordmark-text-0" data-fill-palette-color="quaternary" id="text-0"></path></svg></g></svg></g></svg></g></svg></g><g></g></svg></g></svg></g></svg></g><defs></defs></svg><rect width="320" height="360" fill="none" stroke="none" visibility="hidden"></rect></g></svg></g></svg>