
<svg xmlns="http://www.w3.org/2000/svg" version="1.1" xmlns:xlink="http://www.w3.org/1999/xlink" xmlns:svgjs="http://svgjs.dev/svgjs" width="2000" height="6098" viewBox="0 0 2000 6098"><g transform="matrix(1,0,0,1,-1.4694714563370326,2.468825910931173)"><svg viewBox="0 0 81 247" data-background-color="#c8c8c8" preserveAspectRatio="xMidYMid meet" height="6098" width="2000" xmlns="http://www.w3.org/2000/svg" xmlns:xlink="http://www.w3.org/1999/xlink"><g id="tight-bounds" transform="matrix(1,0,0,1,0.05951359398164868,-0.09999999999999432)"><svg viewBox="0 0 80.88097281203669 247.2" height="247.2" width="80.88097281203669"><g><svg viewBox="0 0 121.31838574108818 370.7906064" height="247.2" width="80.88097281203669"><g><svg viewBox="0 0 121.31838574108818 370.7906064" height="370.7906064" width="121.31838574108818"><g id="textblocktransform"><svg viewBox="0 0 121.31838574108818 370.7906064" height="370.7906064" width="121.31838574108818" id="textblock"><g><rect width="121.31838574108818" height="247.2" fill="none" stroke-width="9.018103199999999" stroke="#6b7280" data-fill-palette-color="none" data-stroke-palette-color="tertiary"></rect><rect width="121.31838574108818" height="123.5906064" y="247.2" fill="#6b7280" data-fill-palette-color="tertiary"></rect></g><g><svg viewBox="0 0 121.31838574108818 247.2" height="247.2" width="121.31838574108818"><g transform="matrix(1,0,0,1,23.607599999999998,23.607599999999998)"><svg width="74.10318574108818" viewBox="-3.25 -38 19.75 53.3" height="199.9848" data-palette-color="#6b7280"><path d="M9.7-36.83Q10.85-38 12.5-38 14.15-38 15.33-36.83 16.5-35.65 16.5-34 16.5-32.35 15.33-31.2 14.15-30.05 12.5-30.05 10.85-30.05 9.7-31.2 8.55-32.35 8.55-34 8.55-35.65 9.7-36.83ZM2.75 15.3L2.75 15.3Q0.4 15.3-1.43 13.83-3.25 12.35-3.25 8.75L-3.25 8.75Q-3.25 1.55 5.45-4.1L5.45-4.1Q5.8-7.1 7.55-22.15L7.55-22.15Q9.05-24 12.25-24L12.25-24Q14.05-24 14.7-23.65L14.7-23.65 10.8 6.6Q10.3 10.95 8.38 13.13 6.45 15.3 2.75 15.3ZM-0.05 8.25Q-0.05 9.6 0.5 10.33 1.05 11.05 1.9 11.05L1.9 11.05Q3.5 11.05 3.95 7.75L3.95 7.75 5-0.25Q-0.05 3.75-0.05 8.25L-0.05 8.25Z" opacity="1" transform="matrix(1,0,0,1,0,0)" fill="#6b7280" class="wordmark-text-0" data-fill-palette-color="primary" id="text-0"></path></svg></g></svg></g></svg></g></svg></g></svg></g><defs></defs></svg><rect width="80.88097281203669" height="247.2" fill="none" stroke="none" visibility="hidden"></rect></g></svg></g></svg>