<svg width="107.19" height="20.466" viewBox="0 0 107.19 20.466" xmlns="http://www.w3.org/2000/svg"><g id="svgGroup" stroke-linecap="round" fill-rule="evenodd" font-size="9pt" stroke="#ffffff" stroke-width="0.15mm" fill="#ffffff" style="stroke:#ffffff;stroke-width:0.15mm;fill:#ffffff"><path d="M 51.552 15.102 L 51.228 15.732 L 47.952 15.732 L 47.952 9.594 Q 47.952 8.568 47.628 8.172 Q 47.388 7.879 46.882 7.803 A 2.615 2.615 0 0 0 46.494 7.776 Q 45.864 7.776 45.261 8.001 Q 44.658 8.226 43.812 8.91 L 43.812 14.454 L 45.432 15.102 L 45.108 15.732 L 40.23 15.732 L 40.23 15.264 L 41.832 14.022 L 41.832 8.73 L 40.23 7.812 L 40.23 7.344 L 43.164 5.832 L 43.74 8.226 L 46.368 6.138 Q 46.746 5.994 47.322 5.994 A 3.138 3.138 0 0 1 48.148 6.097 A 2.273 2.273 0 0 1 49.23 6.741 A 2.501 2.501 0 0 1 49.837 7.899 Q 49.929 8.284 49.932 8.737 A 4.622 4.622 0 0 1 49.932 8.766 L 49.932 14.436 L 51.552 15.102 Z M 29.322 15.084 L 29.016 15.714 L 25.722 15.714 L 25.722 13.77 L 23.382 15.75 A 1.937 1.937 0 0 1 23.054 15.841 Q 22.886 15.872 22.691 15.885 A 4.273 4.273 0 0 1 22.41 15.894 Q 21.204 15.894 20.511 15.147 A 2.506 2.506 0 0 1 19.916 14.008 Q 19.818 13.602 19.818 13.122 L 19.818 8.73 L 18.216 7.794 L 18.216 7.326 L 21.204 5.814 L 21.798 5.814 L 21.798 12.312 A 5.267 5.267 0 0 0 21.818 12.786 Q 21.86 13.25 21.992 13.534 A 0.989 0.989 0 0 0 22.113 13.734 A 0.912 0.912 0 0 0 22.483 14.005 Q 22.782 14.13 23.238 14.13 A 3.067 3.067 0 0 0 24.346 13.919 A 3.479 3.479 0 0 0 24.381 13.905 A 2.98 2.98 0 0 0 24.785 13.704 Q 25.208 13.456 25.722 13.014 L 25.722 8.73 L 24.12 7.794 L 24.12 7.326 L 27.108 5.814 L 27.702 5.814 L 27.702 14.436 L 29.322 15.084 Z M 107.19 6.156 L 107.19 6.624 L 102.654 15.696 L 99 20.448 L 98.406 19.98 A 21.166 21.166 0 0 0 99.064 19.257 Q 99.636 18.597 99.99 18.054 Q 100.53 17.226 100.746 16.38 A 5.945 5.945 0 0 0 100.882 15.644 Q 100.955 15.062 100.944 14.364 L 98.64 8.766 L 97.002 7.812 L 97.002 7.344 L 99.9 5.832 L 100.584 8.55 L 102.816 14.04 L 105.444 8.55 L 103.086 6.804 L 103.392 6.174 L 107.19 6.156 Z M 62.568 15.084 L 62.244 15.714 L 58.968 15.714 L 58.968 14.148 L 56.934 15.75 A 1.825 1.825 0 0 1 56.598 15.846 Q 56.346 15.894 56.034 15.894 Q 55.116 15.894 54.507 15.616 A 1.967 1.967 0 0 1 53.847 15.138 Q 53.172 14.382 53.172 13.32 A 1.897 1.897 0 0 1 53.374 12.481 A 2.633 2.633 0 0 1 53.64 12.051 Q 54.034 11.528 54.721 11.05 A 7.382 7.382 0 0 1 54.99 10.872 L 58.968 10.872 L 58.968 9.558 Q 58.968 8.848 58.747 8.388 A 1.41 1.41 0 0 0 58.329 7.866 Q 57.796 7.46 56.931 7.393 A 4.61 4.61 0 0 0 56.574 7.38 Q 55.625 7.38 54.353 8.443 A 10.281 10.281 0 0 0 53.946 8.802 L 53.406 8.19 L 56.016 6.12 A 7.394 7.394 0 0 1 56.675 6.034 Q 57.019 6.004 57.408 5.997 A 13.654 13.654 0 0 1 57.672 5.994 A 4.924 4.924 0 0 1 58.635 6.082 Q 59.51 6.257 60.084 6.777 A 2.528 2.528 0 0 1 60.836 8.063 Q 60.941 8.477 60.948 8.97 A 4.962 4.962 0 0 1 60.948 9.036 L 60.948 14.454 L 62.568 15.084 Z M 86.4 13.194 L 83.124 15.768 A 6.687 6.687 0 0 1 82.496 15.854 Q 82.172 15.884 81.806 15.892 A 12.166 12.166 0 0 1 81.558 15.894 Q 80.406 15.894 79.479 15.282 A 4.121 4.121 0 0 1 78.097 13.739 A 4.897 4.897 0 0 1 78.03 13.608 A 5.145 5.145 0 0 1 77.516 11.584 A 6.068 6.068 0 0 1 77.508 11.268 A 4.542 4.542 0 0 1 78.248 8.792 A 5.524 5.524 0 0 1 78.336 8.658 Q 79.164 7.434 80.415 6.714 A 5.96 5.96 0 0 1 81.456 6.235 A 4.247 4.247 0 0 1 82.836 5.994 Q 84.492 5.994 85.419 7.326 Q 86.23 8.492 86.345 10.291 A 9.492 9.492 0 0 1 86.364 10.818 L 79.686 10.818 A 6.191 6.191 0 0 0 79.862 12.005 Q 80.047 12.729 80.414 13.296 A 3.798 3.798 0 0 0 80.523 13.455 A 2.373 2.373 0 0 0 82.239 14.47 A 3.137 3.137 0 0 0 82.602 14.49 Q 83.755 14.49 85.798 12.621 A 20.058 20.058 0 0 0 85.86 12.564 L 86.4 13.194 Z M 39.042 7.164 L 37.944 8.532 L 37.35 8.532 A 1.691 1.691 0 0 0 37.295 8.311 Q 37.26 8.203 37.213 8.118 A 0.685 0.685 0 0 0 37.089 7.956 A 0.631 0.631 0 0 0 36.791 7.799 A 0.942 0.942 0 0 0 36.576 7.776 A 1.887 1.887 0 0 0 35.987 7.874 A 2.404 2.404 0 0 0 35.694 7.992 A 2.048 2.048 0 0 0 35.399 8.169 Q 35.106 8.377 34.764 8.735 A 7.762 7.762 0 0 0 34.65 8.856 L 34.65 14.328 L 37.116 15.102 L 36.81 15.732 L 31.068 15.732 L 31.068 15.264 L 32.67 14.022 L 32.67 8.73 L 31.068 7.812 L 31.068 7.344 L 34.002 5.832 L 34.542 8.1 L 36.45 6.138 Q 36.846 5.994 37.476 5.994 L 37.458 6.012 Q 37.962 6.012 38.376 6.318 A 2.014 2.014 0 0 1 38.869 6.849 A 2.595 2.595 0 0 1 39.042 7.164 Z M 96.732 7.164 L 95.634 8.532 L 95.04 8.532 A 1.691 1.691 0 0 0 94.985 8.311 Q 94.95 8.203 94.903 8.118 A 0.685 0.685 0 0 0 94.779 7.956 A 0.631 0.631 0 0 0 94.481 7.799 A 0.942 0.942 0 0 0 94.266 7.776 A 1.887 1.887 0 0 0 93.677 7.874 A 2.404 2.404 0 0 0 93.384 7.992 A 2.048 2.048 0 0 0 93.089 8.169 Q 92.796 8.377 92.454 8.735 A 7.762 7.762 0 0 0 92.34 8.856 L 92.34 14.328 L 94.806 15.102 L 94.5 15.732 L 88.758 15.732 L 88.758 15.264 L 90.36 14.022 L 90.36 8.73 L 88.758 7.812 L 88.758 7.344 L 91.692 5.832 L 92.232 8.1 L 94.14 6.138 Q 94.536 5.994 95.166 5.994 L 95.148 6.012 Q 95.652 6.012 96.066 6.318 A 2.014 2.014 0 0 1 96.559 6.849 A 2.595 2.595 0 0 1 96.732 7.164 Z M 68.94 15.102 L 68.616 15.732 L 63.738 15.732 L 63.738 15.264 L 65.34 14.022 L 65.34 2.7 L 63.738 1.566 L 63.738 1.098 L 66.726 0 L 67.32 0 L 67.32 14.436 L 68.94 15.102 Z M 75.51 15.102 L 75.186 15.732 L 70.308 15.732 L 70.308 15.264 L 71.91 14.022 L 71.91 2.7 L 70.308 1.566 L 70.308 1.098 L 73.296 0 L 73.89 0 L 73.89 14.436 L 75.51 15.102 Z M 3.96 16.074 L 0.594 20.466 L 0 19.998 A 15.157 15.157 0 0 0 0.592 19.254 Q 1.129 18.531 1.391 17.954 A 3.944 3.944 0 0 0 1.449 17.82 Q 1.818 16.92 1.818 15.588 L 1.818 8.568 L 0.216 7.452 L 0.216 6.984 L 3.204 5.832 L 3.798 5.832 L 3.798 13.932 Q 3.798 14.652 3.843 15.255 A 10.392 10.392 0 0 0 3.866 15.516 Q 3.902 15.88 3.952 16.049 A 0.797 0.797 0 0 0 3.96 16.074 Z M 14.04 6.274 A 3.752 3.752 0 0 0 12.582 5.994 A 4.247 4.247 0 0 0 11.202 6.235 A 5.96 5.96 0 0 0 10.161 6.714 Q 8.91 7.434 8.082 8.658 A 5.524 5.524 0 0 0 7.994 8.792 A 4.542 4.542 0 0 0 7.254 11.268 A 6.068 6.068 0 0 0 7.262 11.584 A 5.145 5.145 0 0 0 7.776 13.608 A 4.897 4.897 0 0 0 7.843 13.739 A 4.121 4.121 0 0 0 9.225 15.282 Q 10.152 15.894 11.304 15.894 A 4.247 4.247 0 0 0 12.684 15.653 A 5.96 5.96 0 0 0 13.725 15.174 Q 14.976 14.454 15.804 13.239 A 5.474 5.474 0 0 0 15.861 13.153 A 4.513 4.513 0 0 0 16.632 10.638 A 6.068 6.068 0 0 0 16.624 10.322 A 5.145 5.145 0 0 0 16.11 8.298 A 5.006 5.006 0 0 0 16.043 8.167 A 4.213 4.213 0 0 0 14.67 6.615 A 3.581 3.581 0 0 0 14.04 6.274 Z M 11.538 7.398 Q 9.396 7.398 9.396 10.404 Q 9.396 12.047 10.066 13.181 A 4.117 4.117 0 0 0 10.152 13.32 A 2.545 2.545 0 0 0 10.975 14.139 Q 11.468 14.435 12.106 14.481 A 3.34 3.34 0 0 0 12.348 14.49 A 2.089 2.089 0 0 0 13.375 14.252 Q 14.472 13.645 14.472 11.484 Q 14.472 9.841 13.802 8.707 A 4.117 4.117 0 0 0 13.716 8.568 A 2.581 2.581 0 0 0 12.943 7.779 Q 12.433 7.452 11.762 7.406 A 3.272 3.272 0 0 0 11.538 7.398 Z M 79.686 10.17 L 84.042 10.17 A 23.588 23.588 0 0 0 83.953 9.688 Q 83.85 9.17 83.751 8.815 A 5.393 5.393 0 0 0 83.691 8.613 Q 83.52 8.082 83.079 7.74 A 1.421 1.421 0 0 0 82.651 7.519 Q 82.452 7.453 82.208 7.423 A 3.575 3.575 0 0 0 81.774 7.398 L 81.792 7.398 A 2.057 2.057 0 0 0 80.787 7.63 Q 79.75 8.199 79.686 10.17 Z M 58.968 13.482 L 58.968 11.52 L 55.728 11.52 A 2.179 2.179 0 0 0 55.528 11.783 Q 55.429 11.936 55.374 12.088 A 1.294 1.294 0 0 0 55.359 12.132 A 2.008 2.008 0 0 0 55.276 12.521 A 2.577 2.577 0 0 0 55.26 12.816 A 2.361 2.361 0 0 0 55.342 13.452 A 1.94 1.94 0 0 0 55.611 14.031 A 1.292 1.292 0 0 0 55.892 14.333 A 1.036 1.036 0 0 0 56.538 14.544 Q 57.672 14.544 58.968 13.482 Z M 3.164 0.496 A 1.089 1.089 0 0 0 2.736 0.414 Q 2.544 0.414 2.342 0.487 A 1.676 1.676 0 0 0 2.061 0.621 Q 1.71 0.828 1.485 1.17 Q 1.26 1.512 1.26 1.908 A 1.8 1.8 0 0 0 1.267 2.07 A 1.383 1.383 0 0 0 1.584 2.853 A 1.309 1.309 0 0 0 1.635 2.911 Q 1.943 3.237 2.386 3.24 A 1.217 1.217 0 0 0 2.394 3.24 Q 2.586 3.24 2.788 3.167 A 1.676 1.676 0 0 0 3.069 3.033 Q 3.42 2.826 3.645 2.475 A 1.633 1.633 0 0 0 3.649 2.47 A 1.359 1.359 0 0 0 3.87 1.728 Q 3.87 1.17 3.555 0.792 A 1.027 1.027 0 0 0 3.164 0.496 Z" vector-effect="non-scaling-stroke"/></g></svg>